<?xml version="1.0" encoding="UTF-8" standalone="no"?>
<!-- Generator: Adobe Illustrator 18.0.0, SVG Export Plug-In . SVG Version: 6.00 Build 0)  -->

<svg
   xmlns:dc="http://purl.org/dc/elements/1.1/"
   xmlns:cc="http://creativecommons.org/ns#"
   xmlns:rdf="http://www.w3.org/1999/02/22-rdf-syntax-ns#"
   xmlns:svg="http://www.w3.org/2000/svg"
   xmlns="http://www.w3.org/2000/svg"
   xmlns:sodipodi="http://sodipodi.sourceforge.net/DTD/sodipodi-0.dtd"
   xmlns:inkscape="http://www.inkscape.org/namespaces/inkscape"
   version="1.1"
   id="Capa_1"
   x="0px"
   y="0px"
   viewBox="0 0 379.99998 309.99998"
   xml:space="preserve"
   sodipodi:docname="light_on.svg"
   inkscape:version="0.92.5 (2060ec1f9f, 2020-04-08)"
   width="380"
   height="310"><metadata
   id="metadata42"><rdf:RDF><cc:Work
       rdf:about=""><dc:format>image/svg+xml</dc:format><dc:type
         rdf:resource="http://purl.org/dc/dcmitype/StillImage" /><dc:title /></cc:Work></rdf:RDF></metadata><defs
   id="defs40">
	
	
</defs><sodipodi:namedview
   pagecolor="#323232"
   bordercolor="#666666"
   borderopacity="1"
   objecttolerance="10"
   gridtolerance="10"
   guidetolerance="10"
   inkscape:pageopacity="0"
   inkscape:pageshadow="2"
   inkscape:window-width="1920"
   inkscape:window-height="981"
   id="namedview38"
   showgrid="false"
   inkscape:zoom="1.5359182"
   inkscape:cx="71.152883"
   inkscape:cy="138.64145"
   inkscape:window-x="0"
   inkscape:window-y="0"
   inkscape:window-maximized="1"
   inkscape:current-layer="Capa_1" />
<rect
   style="opacity:1;fill:#4d4c4c;fill-opacity:1;stroke:#009648;stroke-width:0;stroke-linecap:round;stroke-linejoin:round;stroke-miterlimit:4;stroke-dasharray:none;stroke-opacity:1"
   id="rect858"
   width="355.48764"
   height="274.75421"
   x="12.25618"
   y="17.622894"
   ry="43.622112" />
<g
   id="g7"
   transform="translate(0,2.691683)">
</g>
<g
   id="g9"
   transform="translate(0,2.691683)">
</g>
<g
   id="g11"
   transform="translate(0,2.691683)">
</g>
<g
   id="g13"
   transform="translate(0,2.691683)">
</g>
<g
   id="g15"
   transform="translate(0,2.691683)">
</g>
<g
   id="g17"
   transform="translate(0,2.691683)">
</g>
<g
   id="g19"
   transform="translate(0,2.691683)">
</g>
<g
   id="g21"
   transform="translate(0,2.691683)">
</g>
<g
   id="g23"
   transform="translate(0,2.691683)">
</g>
<g
   id="g25"
   transform="translate(0,2.691683)">
</g>
<g
   id="g27"
   transform="translate(0,2.691683)">
</g>
<g
   id="g29"
   transform="translate(0,2.691683)">
</g>
<g
   id="g31"
   transform="translate(0,2.691683)">
</g>
<g
   id="g33"
   transform="translate(0,2.691683)">
</g>
<g
   id="g35"
   transform="translate(0,2.691683)">
</g>
<path
   id="path162"
   d="m 132.50418,106.12324 -21.14497,-21.045701 13.99738,-13.99738 21.0457,21.144975 -13.89811,13.898106 M 201.99473,47.552642 V 77.334307 H 182.14029 V 47.552642 h 19.85444 m 70.78108,37.524897 -21.14497,21.045701 -13.89811,-13.898106 21.0457,-21.144975 13.99738,13.99738 M 117.61335,141.86124 v 19.85444 H 87.83169 v -19.85444 h 29.78166 m 148.90832,0 h 29.78166 v 19.85444 h -29.78166 v -19.85444 m -134.01749,94.30859 h 119.12666 a 19.854442,19.854442 0 0 1 19.85444,19.85445 H 112.64974 a 19.854442,19.854442 0 0 1 19.85444,-19.85445 M 192.06751,87.261525 a 59.563326,59.563326 0 0 1 59.56333,59.563325 v 79.41777 H 132.50418 v -79.41777 a 59.563326,59.563326 0 0 1 59.56333,-59.563325 z"
   inkscape:connector-curvature="0"
   style="fill:#ffbc28;fill-opacity:1;stroke-width:9.9272213" /></svg>